HIERARCHY
ROOT Hips
{
	OFFSET -0.001795 -0.223333 0.028219
	CHANNELS 6 Xposition Yposition Zposition Zrotation Yrotation Xrotation 
	JOINT LeftUpLeg
	{
		OFFSET 0.069520 -0.091406 -0.006815
		CHANNELS 3 Zrotation Yrotation Xrotation
		JOINT LeftLeg
		{
			OFFSET 0.034277 -0.375199 -0.004496
			CHANNELS 3 Zrotation Yrotation Xrotation
			JOINT LeftFoot
			{
				OFFSET -0.013596 -0.397961 -0.043693
				CHANNELS 3 Zrotation Yrotation Xrotation
				JOINT LeftToe
				{
					OFFSET 0.026358 -0.055791 0.119288
					CHANNELS 3 Zrotation Yrotation Xrotation
					End Site
					{
						OFFSET 0.000000 0.000000 0.000000
					}
				}
			}
		}
	}
	JOINT RightUpLeg
	{
		OFFSET -0.067670 -0.090522 -0.004320
		CHANNELS 3 Zrotation Yrotation Xrotation
		JOINT RightLeg
		{
			OFFSET -0.038290 -0.382569 -0.008850
			CHANNELS 3 Zrotation Yrotation Xrotation
			JOINT RightFoot
			{
				OFFSET 0.015774 -0.398415 -0.042312
				CHANNELS 3 Zrotation Yrotation Xrotation
				JOINT RightToe
				{
					OFFSET -0.025372 -0.048144 0.123348
					CHANNELS 3 Zrotation Yrotation Xrotation
					End Site
					{
						OFFSET 0.000000 0.000000 0.000000
					}
				}
			}
		}
	}
	JOINT Spine
	{
		OFFSET -0.002533 0.108963 -0.026696
		CHANNELS 3 Zrotation Yrotation Xrotation
		JOINT Spine1
		{
			OFFSET 0.005487 0.135180 0.001092
			CHANNELS 3 Zrotation Yrotation Xrotation
			JOINT Spine2
			{
				OFFSET 0.001457 0.052922 0.025425
				CHANNELS 3 Zrotation Yrotation Xrotation
				JOINT Neck
				{
					OFFSET -0.002778 0.213870 -0.042857
					CHANNELS 3 Zrotation Yrotation Xrotation
					JOINT Head
					{
						OFFSET 0.005152 0.064970 0.051349
						CHANNELS 3 Zrotation Yrotation Xrotation
						End Site
						{
							OFFSET 0.000000 0.000000 0.000000
						}
					}
				}
				JOINT LeftShoulder
				{
					OFFSET 0.078845 0.121749 -0.034090
					CHANNELS 3 Zrotation Yrotation Xrotation
					JOINT LeftArm
					{
						OFFSET 0.090977 0.030469 -0.008868
						CHANNELS 3 Zrotation Yrotation Xrotation
						JOINT LeftForeArm
						{
							OFFSET 0.259612 -0.012772 -0.027456
							CHANNELS 3 Zrotation Yrotation Xrotation
							JOINT LeftHand
							{
								OFFSET 0.249234 0.008986 -0.001171
								CHANNELS 3 Zrotation Yrotation Xrotation
								End Site
								{
									OFFSET 0.000000 0.000000 0.000000
								}
							}
						}
					}
				}
				JOINT RightShoulder
				{
					OFFSET -0.081759 0.118833 -0.038615
					CHANNELS 3 Zrotation Yrotation Xrotation
					JOINT RightArm
					{
						OFFSET -0.096012 0.032551 -0.009143
						CHANNELS 3 Zrotation Yrotation Xrotation
						JOINT RightForeArm
						{
							OFFSET -0.253742 -0.013329 -0.021401
							CHANNELS 3 Zrotation Yrotation Xrotation
							JOINT RightHand
							{
								OFFSET -0.255298 0.007772 -0.005559
								CHANNELS 3 Zrotation Yrotation Xrotation
								End Site
								{
									OFFSET 0.000000 0.000000 0.000000
								}
							}
						}
					}
				}
			}
		}
	}
}
MOTION
Frames: 16
Frame Time: 0.050000
0.000931 0.947325 0.022563 -1.421694 -14.923199 1.346899 2.579194 0.640701 6.801453 1.462524 0.271578 -8.799629 2.488602 7.046736 11.490956 0.000000 0.000000 0.000000 -4.008960 0.081705 3.388578 1.231021 -0.156671 -2.574871 -0.413171 -7.063091 10.801778 0.000000 0.000000 0.000000 7.632412 -0.314299 2.620173 -2.396198 0.896817 -22.925131 -2.471462 12.092973 20.019093 8.901521 -4.216432 -17.369066 0.000000 0.000000 0.000000 15.372963 10.222718 -1.053050 -1.215067 -17.638987 -1.138545 3.465486 16.520540 -0.148413 0.000000 0.000000 0.000000 -14.321178 -19.414600 -4.064949 -2.424961 8.100463 -0.388055 0.220907 -12.512269 -0.413736 0.000000 0.000000 0.000000 
0.001416 0.947141 0.021873 -1.144617 -15.135010 1.391527 2.408784 0.652179 6.814380 1.152819 0.307110 -9.083259 2.537607 7.123428 11.640242 0.000000 0.000000 0.000000 -3.941792 0.082829 3.321789 1.090433 -0.158635 -3.012820 -1.169156 -8.525791 10.947847 0.000000 0.000000 0.000000 7.762680 -0.309825 2.549207 -2.658488 0.939982 -22.252608 -2.812261 12.627718 19.560014 9.400952 -4.463997 -17.440747 0.000000 0.000000 0.000000 14.606192 10.608124 -1.166063 -1.426577 -16.017430 -1.030165 2.811917 16.901130 -0.264036 0.000000 0.000000 0.000000 -13.804248 -20.065773 -4.373262 -2.578033 8.092837 -0.379171 0.432496 -12.116350 -0.424991 0.000000 0.000000 0.000000 
0.001930 0.947329 0.020353 -0.909385 -15.280460 1.222161 2.456220 0.655491 6.829825 0.582269 0.336000 -9.047862 2.539241 7.131170 11.766715 0.000000 0.000000 0.000000 -3.988745 0.085881 3.389373 1.116539 -0.169409 -3.490687 -1.735712 -9.780349 11.545190 0.000000 0.000000 0.000000 7.716498 -0.294500 2.454890 -3.178427 1.060294 -21.338503 -3.043428 13.042219 19.058852 9.679066 -4.480019 -17.977959 0.000000 0.000000 0.000000 14.379660 11.104932 -1.229013 -1.608976 -15.503755 -0.992762 3.572406 16.795044 -0.156613 0.000000 0.000000 0.000000 -13.439045 -19.742627 -4.411445 -2.161368 7.702796 -0.366589 -0.185643 -11.287611 -0.316167 0.000000 0.000000 0.000000 
0.002289 0.947449 0.017810 -0.924925 -16.049231 1.221842 2.561897 0.643525 6.648822 0.288835 0.340440 -8.812867 2.898688 7.677479 11.869461 0.000000 0.000000 0.000000 -3.838215 0.117231 2.535364 0.760233 -0.126680 -2.472061 -1.467175 -9.273079 11.219890 0.000000 0.000000 0.000000 7.508013 -0.332940 2.887024 -3.139734 1.033227 -21.403384 -3.201302 14.263075 19.091744 10.519126 -4.768616 -18.801276 0.000000 0.000000 0.000000 14.040474 10.652146 -1.079875 -0.367457 -14.624816 -0.942706 4.650591 17.489721 -0.024495 0.000000 0.000000 0.000000 -12.760395 -19.474533 -4.601873 -2.271192 8.111364 -0.389796 -1.284289 -10.112749 -0.152541 0.000000 0.000000 0.000000 
0.002454 0.947619 0.014392 -0.919360 -16.269405 1.474928 2.605798 0.607192 6.296201 0.225795 0.356531 -9.018831 2.990711 7.828259 12.113344 0.000000 0.000000 0.000000 -3.399112 0.092665 2.310784 0.017875 -0.106226 -3.023783 -1.331907 -9.132125 11.380900 0.000000 0.000000 0.000000 7.419513 -0.315787 2.680785 -3.815964 1.205341 -20.625668 -3.294916 14.406934 18.336465 10.110237 -4.405355 -19.081621 0.000000 0.000000 0.000000 14.108504 10.697090 -1.030858 1.328632 -14.501021 -0.928899 6.238150 16.800257 0.210181 0.000000 0.000000 0.000000 -13.065737 -18.052788 -4.184133 -2.259909 8.827929 -0.444783 -2.312510 -9.300689 -0.024083 0.000000 0.000000 0.000000 
0.002251 0.947538 0.010766 -0.910608 -16.701920 1.714466 2.677625 0.524483 5.446821 0.115939 0.321865 -8.272832 3.283030 8.254857 12.021109 0.000000 0.000000 0.000000 -3.047951 0.105624 1.556562 -0.562012 -0.065772 -2.671102 -1.187305 -8.869528 11.207465 0.000000 0.000000 0.000000 7.132567 -0.266758 2.195656 -4.294945 1.326046 -20.177401 -3.199610 15.429891 18.393361 10.837032 -4.743199 -19.232300 0.000000 0.000000 0.000000 14.850059 10.147749 -0.668779 3.285936 -16.117746 -1.122730 9.117906 17.360799 0.612530 0.000000 0.000000 0.000000 -13.148417 -17.490906 -4.158112 -2.402822 10.364680 -0.556182 -4.327043 -6.612885 0.176985 0.000000 0.000000 0.000000 
0.001757 0.947312 0.007268 -0.967762 -17.427608 1.578696 2.767003 0.537566 5.499273 0.089776 0.323072 -8.248676 3.628513 8.774989 12.124903 0.000000 0.000000 0.000000 -2.835017 0.097593 1.477278 -0.796419 -0.058896 -2.806651 -0.854753 -8.300041 11.070820 0.000000 0.000000 0.000000 6.980422 -0.260701 2.223654 -4.684027 1.421204 -19.709928 -3.010410 16.017633 17.892478 10.760393 -4.904691 -17.977210 0.000000 0.000000 0.000000 15.382914 8.969313 -0.275287 5.494503 -16.402768 -1.213273 12.327487 15.407808 0.950457 0.000000 0.000000 0.000000 -13.821155 -16.100536 -3.738569 -2.791298 13.343505 -0.780009 -7.607711 -4.772215 0.399694 0.000000 0.000000 0.000000 
0.000986 0.946200 0.004040 -0.845407 -17.231602 1.184071 3.106643 0.513892 5.312136 -0.491472 0.330546 -7.588440 3.562583 8.659312 11.622700 0.000000 0.000000 0.000000 -2.530426 0.052872 1.766646 -1.346284 -0.034459 -2.882940 -1.038297 -8.442146 10.692335 0.000000 0.000000 0.000000 6.540911 -0.173956 1.472082 -5.106108 1.574094 -17.589947 -3.171349 16.331235 16.471181 11.787381 -5.511519 -17.756036 0.000000 0.000000 0.000000 16.180933 7.856576 0.270653 8.662759 -19.583985 -1.856346 17.637581 12.270565 1.222074 0.000000 0.000000 0.000000 -14.446436 -14.683764 -3.388919 -4.818481 16.310762 -1.033129 -10.725347 -2.505118 0.496658 0.000000 0.000000 0.000000 
0.000192 0.945054 0.000621 -0.561974 -17.385202 0.390328 2.891052 0.520636 5.232247 -0.437484 0.270686 -6.367790 3.724947 8.885415 11.044740 0.000000 0.000000 0.000000 -3.111485 0.090785 1.909856 -0.661334 -0.039172 -2.119707 -1.130227 -8.308011 9.987569 0.000000 0.000000 0.000000 6.160874 -0.127926 1.187048 -5.416866 1.706229 -15.859537 -3.618554 16.870643 14.526266 12.009119 -5.753973 -16.732329 0.000000 0.000000 0.000000 16.735219 5.244073 1.076157 11.638850 -22.658688 -2.716615 26.663954 7.677236 1.041972 0.000000 0.000000 0.000000 -15.672761 -11.762585 -2.672595 -6.016449 19.975357 -1.393961 -17.298418 1.117273 0.469519 0.000000 0.000000 0.000000 
-0.000431 0.943640 -0.002822 -0.349141 -17.351520 -0.490639 3.068104 0.609023 6.092288 -0.914902 0.324552 -6.650711 3.624739 8.726328 10.759132 0.000000 0.000000 0.000000 -3.280709 0.070188 2.530155 -0.575774 -0.037308 -1.953680 -1.270552 -8.286803 9.395409 0.000000 0.000000 0.000000 5.925684 -0.085849 0.931519 -6.160976 1.996087 -14.932949 -3.673576 18.125759 13.584287 12.928612 -6.492416 -15.489325 0.000000 0.000000 0.000000 19.566239 1.594871 2.415188 12.866248 -27.178177 -3.987785 35.091174 3.661786 0.040432 0.000000 0.000000 0.000000 -17.570687 -8.706403 -2.124505 -7.643625 21.879347 -1.590799 -23.579522 8.353014 -0.485265 0.000000 0.000000 0.000000 
-0.000959 0.942909 -0.006134 0.002799 -17.093681 -1.265974 2.773535 0.610880 5.997315 -0.809276 0.273297 -5.584374 3.568808 8.619074 10.331508 0.000000 0.000000 0.000000 -3.672775 0.075230 3.051444 -0.330536 -0.046542 -1.829256 -1.463301 -8.455607 9.030770 0.000000 0.000000 0.000000 6.294114 -0.030041 0.541064 -6.917395 2.289142 -14.575105 -4.114630 18.382167 13.192338 14.111201 -7.326613 -15.237294 0.000000 0.000000 0.000000 21.300036 -0.473852 3.054609 14.836478 -32.826086 -5.867126 43.661200 -3.928011 -2.921404 0.000000 0.000000 0.000000 -21.154483 -5.066987 -1.379521 -8.434187 24.088766 -1.811791 -34.318913 19.333749 -3.564556 0.000000 0.000000 0.000000 
-0.001404 0.943061 -0.009051 -0.226522 -16.123781 -1.677408 3.617911 0.666459 6.889401 -1.536035 0.380829 -6.789797 2.919535 7.608104 10.578399 0.000000 0.000000 0.000000 -3.595949 0.011854 4.061098 0.251166 -0.109477 -2.738786 -1.753403 -9.094563 9.476804 0.000000 0.000000 0.000000 6.725701 0.034937 0.036616 -8.102169 2.810688 -13.357980 -4.277282 18.383631 12.051931 15.366593 -8.094544 -15.233223 0.000000 0.000000 0.000000 25.408637 -4.712591 4.189191 16.837756 -37.769316 -8.024682 51.277615 -10.524260 -6.747464 0.000000 0.000000 0.000000 -25.976805 -1.700769 -0.912381 -8.589186 26.755210 -1.967397 -44.515103 28.474206 -7.901537 0.000000 0.000000 0.000000 
-0.001884 0.943021 -0.011294 -0.423283 -16.074054 -1.912884 3.846949 0.661097 6.880918 -1.424872 0.359717 -6.459529 2.917192 7.599712 10.453091 0.000000 0.000000 0.000000 -3.158831 -0.044222 4.349805 -0.030774 -0.101057 -2.911439 -1.744695 -9.100769 9.542336 0.000000 0.000000 0.000000 6.772513 0.009735 0.339049 -8.707890 2.984997 -14.200874 -3.725343 18.665783 11.637558 15.951712 -8.587265 -14.822093 0.000000 0.000000 0.000000 27.286518 -8.109151 4.686411 22.086384 -42.604699 -11.527260 54.696410 -15.512882 -9.627563 0.000000 0.000000 0.000000 -31.411722 1.635555 -0.612981 -11.661585 30.420616 -2.652658 -53.419636 30.342780 -10.660588 0.000000 0.000000 0.000000 
-0.002482 0.943503 -0.012736 -0.406028 -15.976172 -1.439568 3.866641 0.613127 6.438544 -1.393184 0.367849 -6.788438 2.860524 7.533124 10.802824 0.000000 0.000000 0.000000 -3.643729 0.003892 4.355581 0.952886 -0.170932 -3.994293 -1.657230 -9.129706 10.043344 0.000000 0.000000 0.000000 6.816631 0.023046 0.109015 -9.529310 3.188692 -15.583798 -3.472479 18.894264 11.767211 15.676503 -8.623195 -13.955157 0.000000 0.000000 0.000000 31.973779 -10.047937 5.005668 25.075757 -46.477454 -14.498446 56.800037 -14.605945 -9.508089 0.000000 0.000000 0.000000 -36.398853 3.072456 -0.603011 -15.260742 32.645031 -3.429161 -57.204557 27.886740 -10.300089 0.000000 0.000000 0.000000 
-0.003043 0.944410 -0.013488 -0.653564 -16.126981 -1.265551 3.876636 0.567484 5.924502 -0.890856 0.299659 -6.120787 3.006039 7.765050 10.886087 0.000000 0.000000 0.000000 -3.063896 -0.028310 3.866892 0.452425 -0.138149 -3.443819 -1.564220 -9.044524 10.178893 0.000000 0.000000 0.000000 6.765470 -0.046873 0.740777 -9.818013 3.103212 -18.334276 -3.324055 19.475310 13.604954 16.490061 -9.496087 -13.304748 0.000000 0.000000 0.000000 33.666845 -10.027485 4.946201 29.033630 -48.553782 -17.355073 58.141710 -11.164794 -7.910536 0.000000 0.000000 0.000000 -38.614923 3.202032 -0.867647 -20.415966 32.613056 -4.194904 -57.752511 20.280405 -6.632674 0.000000 0.000000 0.000000 
-0.003545 0.945452 -0.013666 -0.917249 -16.729864 -0.531858 3.892586 0.510524 5.264391 -0.492373 0.262982 -6.081985 3.337129 8.297945 11.303510 0.000000 0.000000 0.000000 -3.229481 0.025137 3.245649 1.240180 -0.173899 -3.810037 -1.162724 -8.574723 10.655106 0.000000 0.000000 0.000000 7.287982 -0.001232 0.229814 -10.904896 3.338037 -19.926895 -2.893909 19.795415 14.785927 15.710567 -9.754858 -10.872258 0.000000 0.000000 0.000000 34.289064 -8.950253 4.788133 29.903614 -50.508140 -18.731837 57.447647 -4.650184 -4.314190 0.000000 0.000000 0.000000 -40.394546 2.312667 -0.884133 -22.662232 31.425751 -4.321668 -57.830184 14.225816 -3.616063 0.000000 0.000000 0.000000 
